<svg width="60" height="80" viewBox="0 0 60 80" fill="none" xmlns="http://www.w3.org/2000/svg">
<path fill-rule="evenodd" clip-rule="evenodd" d="M35.9942 24.3056H42.5759V1.70984C40.4921 0.928365 38.2857 0.397037 35.9942 0.152906V24.3056ZM47.8726 24.3056H45.0358V2.77538C53.8962 7.1509 60 16.2411 60 26.7203V53.274C60 56.8789 59.2777 60.3195 57.9692 63.4603V30.1874C57.9692 27.1628 55.5277 24.6695 52.3904 24.3421V24.3056H51.6875H47.8726ZM47.8726 74.3709H49.593C45.0367 77.8939 39.3141 79.9943 33.1072 79.9943H26.8928V80C12.0647 80 0 68.0126 0 53.274V26.7203C0 11.9874 12.0647 0 26.8928 0H33.1072C33.2499 0 33.3922 0.00110891 33.5343 0.00331851V24.3056H30.3924H25.8746H25.3726C21.9047 24.3056 19.0908 26.9403 19.0908 30.1874V68.4892C19.0908 71.7362 21.9047 74.3709 25.3726 74.3709H25.8746H30.3924H47.8726Z" fill="url(#paint0_linear)"/>
<path d="M34.6538 36.0318H27.252C26.697 36.0318 26.2451 35.6087 26.2451 35.089V11.9428C26.2451 11.4231 26.697 11 27.252 11H34.6538C35.2088 11 35.6607 11.4231 35.6607 11.9428V35.0936C35.6607 35.6087 35.2088 36.0318 34.6538 36.0318ZM28.2589 34.1462H33.6469V12.8855H28.2589V34.1462Z" fill="#EC2227"/>
<path d="M41.1063 73.876H19.5639C16.7249 73.876 14.4214 71.7191 14.4214 69.0609V37.7057C14.4214 35.0475 16.7249 32.8906 19.5639 32.8906H41.1063C43.9452 32.8906 46.2487 35.0475 46.2487 37.7057V69.0655C46.2487 71.7237 43.9452 73.876 41.1063 73.876Z" fill="#EC2227"/>
<path d="M23.6731 32.8906H19.9746V75.0625H23.6731V32.8906Z" fill="white"/>
<path d="M41.6819 32.8906H37.9834V75.0625H41.6819V32.8906Z" fill="white"/>
<path d="M35.6558 37.8428H26.2451V41.7702H35.6558V37.8428Z" fill="white"/>
<path d="M21.8916 79.7127H21.7541C20.7718 79.7127 19.9712 78.9677 19.9712 78.0433V76.2451H23.6696V78.0433C23.6746 78.9631 22.8789 79.7127 21.8916 79.7127Z" fill="#EC2227"/>
<path d="M39.9048 79.7127H39.7673C38.785 79.7127 37.9844 78.9677 37.9844 78.0433V76.2451H41.6828V78.0433C41.6828 78.9631 40.8871 79.7127 39.9048 79.7127Z" fill="#EC2227"/>
<defs>
<linearGradient id="paint0_linear" x1="31.1395" y1="38.3039" x2="31.3148" y2="0.10314" gradientUnits="userSpaceOnUse">
<stop stop-color="#FEDC00"/>
<stop offset="0.3" stop-color="#FEDC00"/>
<stop offset="0.4447" stop-color="#FED406"/>
<stop offset="0.7075" stop-color="#FCBD15"/>
<stop offset="0.9264" stop-color="#FAA71B"/>
<stop offset="1" stop-color="#FAA71B"/>
</linearGradient>
</defs>
</svg>
