<svg width="60" height="80" viewBox="0 0 60 80" fill="none" xmlns="http://www.w3.org/2000/svg">
<path d="M26.9045 80C12.0347 80 0 67.9971 0 53.295V26.705C0 12.0029 12.0926 0 26.9045 0H33.0955C47.9653 0 60 12.0029 60 26.705V53.2376C60 67.9971 47.9074 79.9426 33.0955 79.9426H26.9045V80Z" fill="url(#paint0_linear)"/>
<path d="M24.2435 39.8306C23.8341 41.9684 25.1077 44.3792 27.6095 46.5626C34.8873 52.9761 42.0742 59.5262 49.261 66.0762C49.9433 66.6675 50.6256 67.3043 51.2624 67.9412C53.0819 69.6696 53.0819 71.853 51.3534 73.5815C49.6704 75.2645 47.3506 75.2645 45.7131 73.445C39.0266 66.1217 32.3856 58.7074 25.7446 51.3841C25.0623 50.6108 24.289 49.9286 23.6977 49.1098C22.1966 47.1994 20.3317 46.5626 17.9209 46.608C9.46044 46.7445 4.04756 42.2868 2.36456 33.9173C2.13713 32.7802 2.00067 31.5975 2.00067 30.4149C1.95518 26.0482 4.2295 23.8649 8.59619 24.0923C12.8264 24.3197 16.6473 25.8208 19.9223 28.5045C23.1063 31.1427 24.7893 34.5087 24.2435 39.8306Z" fill="#EC2227"/>
<path d="M33.9777 51.1113C32.7496 49.9741 31.6579 49.0189 30.6572 48.1092C32.1128 46.5626 33.3409 45.1071 34.751 43.788C35.9791 42.6508 36.6614 41.3317 36.434 39.6487C36.1156 37.3744 36.9798 35.6914 38.6628 34.1449C42.5292 30.506 46.2136 26.6851 49.9435 22.9097C50.2164 22.6368 50.4438 22.2274 50.7622 22.1365C51.2626 22 51.7629 22.0455 52.3087 22C52.2178 22.5004 52.3542 23.1826 52.0813 23.5011C49.4431 26.2302 46.7139 28.9139 44.0302 31.5976C43.5299 32.098 42.9385 32.5074 42.5747 33.0987C42.2563 33.599 42.1653 34.2358 41.9833 34.7817C42.5292 34.5997 43.2115 34.5542 43.5754 34.1903C46.6229 31.2337 49.5796 28.2316 52.5817 25.2295C52.9001 24.9111 53.173 24.5472 53.5369 24.3653C53.8553 24.2288 54.4921 24.2288 54.6285 24.4108C54.856 24.6837 54.947 25.275 54.8105 25.6389C54.7195 26.0028 54.2647 26.2757 53.9917 26.5941C50.9896 29.5962 47.9875 32.5528 45.0309 35.6004C44.667 35.9643 44.667 36.7376 44.5306 37.2834C45.0764 37.056 45.7132 36.965 46.0771 36.6011C49.0792 33.69 51.9903 30.6879 54.9924 27.7768C55.5383 27.2309 56.0841 25.9118 57.1303 26.9125C58.131 27.9132 56.9484 28.5046 56.357 29.0959C53.4004 32.098 50.3528 35.1001 47.3962 38.1022C47.0323 38.4661 47.0323 39.1484 46.8959 39.6942C47.3962 39.5577 48.0785 39.5577 48.4424 39.1939C51.4445 36.2827 54.4011 33.2806 57.3577 30.324C57.6306 30.0511 57.8581 29.6872 58.1765 29.5507C58.6768 29.3688 59.2227 29.4143 59.723 29.3688C59.6775 29.8691 59.814 30.5514 59.5411 30.8698C58.7678 31.8251 57.8126 32.6438 56.9484 33.5081C53.5824 37.056 50.2164 40.513 46.7139 43.8335C45.8497 44.6522 44.3486 45.3345 43.2115 45.289C40.5278 45.1071 38.5719 46.0168 36.9343 48.0182C36.0701 49.0644 35.0694 49.9741 33.9777 51.1113Z" fill="#F6FCFF"/>
<path d="M25.425 52.3857C26.6986 53.7958 27.8358 55.0694 29.0184 56.3885C28.791 56.7069 28.609 57.0254 28.3816 57.2983C23.5146 62.7112 18.602 68.124 13.735 73.5369C12.3704 75.038 10.46 75.2199 8.82245 74.1282C7.18494 73.0366 6.45716 70.9897 7.18494 69.3976C7.36689 68.9883 7.63981 68.5334 8.0037 68.215C13.735 62.9386 19.5118 57.7531 25.425 52.3857Z" fill="#F6FCFF"/>
<defs>
<linearGradient id="paint0_linear" x1="31.6247" y1="-10.7371" x2="28.9165" y2="76.0275" gradientUnits="userSpaceOnUse">
<stop stop-color="#FEDC00"/>
<stop offset="0.3" stop-color="#FEDC00"/>
<stop offset="0.4447" stop-color="#FED406"/>
<stop offset="0.7075" stop-color="#FCBD15"/>
<stop offset="0.9264" stop-color="#FAA71B"/>
<stop offset="1" stop-color="#FAA71B"/>
</linearGradient>
</defs>
</svg>
