<svg width="60" height="80" viewBox="0 0 60 80" fill="none" xmlns="http://www.w3.org/2000/svg">
<path d="M26.9046 80C12.0349 80 0.000206766 67.9971 0.000206766 53.295V26.705C-0.0576522 12.0029 12.0349 0 26.9046 0H33.0956C47.9653 0 60 12.0029 60 26.705V53.2376C60 67.9971 47.9075 79.9426 33.0956 79.9426H26.9046V80Z" fill="url(#paint0_linear)"/>
<path d="M53.8317 25.4724C53.8317 25.4724 44.1834 26.6784 43.6091 14.6755C41.0248 13.9864 30.3428 11 30.3428 11C30.3428 11 18.8568 13.9864 16.2725 14.6755C15.6982 26.6784 6.04993 25.4724 6.04993 25.4724C4.72904 63.893 30.0557 68.5449 30.0557 68.5449C30.0557 68.5449 55.21 63.893 53.8317 25.4724Z" fill="#EC2227"/>
<path d="M24.1036 43.8175C23.8164 43.7027 23.5293 43.5878 23.2995 43.4729C20.3132 42.3243 17.3268 41.1757 14.283 39.9697C13.0196 39.5103 12.9621 38.6488 13.881 37.7299C14.9148 36.6962 16.1208 36.3516 17.5565 36.4665C22.0361 36.6962 26.5156 36.8111 30.9952 36.9259C31.2823 36.9259 31.5695 36.8111 31.7992 36.6388C34.7281 34.2267 37.7145 31.8147 40.6434 29.4026C41.7346 28.4837 42.8832 27.7371 44.2041 27.2777C45.3527 26.8757 46.4438 26.8757 47.4201 27.7371C47.9944 28.254 48.1667 28.8283 47.7647 29.5175C47.3627 30.1492 46.9033 30.8383 46.3864 31.2978C43.4575 33.9396 40.5285 36.5813 37.5422 39.1657C31.2249 44.5641 24.9076 49.9051 18.5903 55.3035C17.9585 55.8778 17.3268 55.9927 16.5228 55.7055C13.6513 54.7292 10.7798 53.8103 7.96573 52.8915C6.93199 52.5469 6.81713 51.8003 7.56372 50.9963C8.19545 50.3071 8.88461 50.1348 9.80349 50.1923C11.8135 50.3645 13.8236 50.422 15.8911 50.5368C16.1208 50.5368 16.4079 50.4794 16.5802 50.3645C18.9923 48.2396 21.5192 46.0573 24.1036 43.8175Z" fill="white"/>
<path d="M38.2305 40.8906C39.6663 42.9007 41.102 44.7959 42.5378 46.7485C42.9398 47.3228 42.8823 48.2991 42.4803 48.816C42.0783 49.3328 41.4466 49.4477 40.6426 49.218C37.8859 48.2991 35.1867 47.4376 32.4301 46.5188C32.2578 46.4613 32.0281 46.4039 31.7983 46.289C33.9232 44.4513 36.0482 42.671 38.2305 40.8906Z" fill="white"/>
<path d="M22.6692 51.859C22.6692 51.859 24.5069 46.5755 23.3009 44.5654C8.70162 52.3992 1.81982 48.9218 0 46V54C0 54.6243 0.142466 56.7684 0.5 58.5C1 61 1.5 62 1.5 62C12.0176 61.8111 22.6692 51.859 22.6692 51.859Z" fill="white"/>
<defs>
<linearGradient id="paint0_linear" x1="31.5939" y1="-10.7371" x2="28.8857" y2="76.0275" gradientUnits="userSpaceOnUse">
<stop stop-color="#FEDC00"/>
<stop offset="0.3" stop-color="#FEDC00"/>
<stop offset="0.4447" stop-color="#FED406"/>
<stop offset="0.7075" stop-color="#FCBD15"/>
<stop offset="0.9264" stop-color="#FAA71B"/>
<stop offset="1" stop-color="#FAA71B"/>
</linearGradient>
</defs>
</svg>
