<svg width="54" height="76" viewBox="0 0 54 76" fill="none" xmlns="http://www.w3.org/2000/svg">
    <path d="M24.2141 75.3691C10.8312 75.3691 0 64.1164 0 50.3332V25.4051C0 11.6219 10.8833 0.369141 24.2141 0.369141H29.786C43.1688 0.369141 54 11.6219 54 25.4051V50.2794C54 64.1164 43.1167 75.3153 29.786 75.3153H24.2141V75.3691Z" fill="url(#paint0_linear_3818_5607)"/>
    <path d="M12.7783 27.5996C12.7783 19.7813 19.1163 13.4434 26.9346 13.4434C34.7529 13.4434 41.0909 19.7813 41.0909 27.5996V49.176H12.7783V27.5996Z" fill="#EC2029"/>
    <path d="M9.70117 58.5794L12.7786 51.6836H41.0912L44.1686 58.5794H9.70117Z" fill="#EC0117"/>
    <path d="M9.70117 58.5801H44.1686C44.1686 60.6574 42.4846 62.3414 40.4073 62.3414H13.4625C11.3852 62.3414 9.70117 60.6574 9.70117 58.5801Z" fill="#EC0117"/>
    <path d="M25.0879 28.1758C25.7034 28.8027 27.3037 29.6803 28.7808 28.1758" stroke="black" stroke-linecap="round"/>
    <rect x="20.1641" y="12.8164" width="13.5408" height="18.8066" rx="6.77039" fill="white"/>
    <path d="M25.7041 27.2363C26.173 27.7094 27.0406 28.3717 28.1661 27.2363" stroke="#EC2029" stroke-linecap="round"/>
    <mask id="mask0_3818_5607" style="mask-type:alpha" maskUnits="userSpaceOnUse" x="15" y="9" width="21" height="15">
        <path d="M20.1639 22.8472L18.6252 23.1607L15.8555 20.0262L16.471 12.5036L23.2413 9.36914L31.5505 10.6229L35.2434 14.3842L35.5511 22.8472H33.7047C34.0124 20.0262 32.7814 17.8321 31.5505 19.7128C30.5657 21.2173 28.0627 21.1755 26.9343 20.9666C27.242 19.3993 25.3956 17.2052 24.7801 19.0859C24.2877 20.5904 23.1388 20.9666 22.6259 20.9666C22.6259 18.2082 20.9846 19.1904 20.1639 20.0262V22.8472Z" fill="#EC2029"/>
    </mask>
    <g mask="url(#mask0_3818_5607)">
        <rect x="18.9326" y="10.9355" width="16.0027" height="22.568" rx="8.00137" fill="#EC2029"/>
    </g>
    <path d="M24.3289 24.6083C24.3289 25.1276 23.9155 25.5486 23.4057 25.5486C22.8958 25.5486 22.4824 25.1276 22.4824 24.6083C22.4824 24.089 22.8958 23.668 23.4057 23.668C23.9155 23.668 24.3289 24.089 24.3289 24.6083Z" fill="#EC0117"/>
    <path d="M31.3592 24.6005C31.3592 25.1198 30.9458 25.5408 30.4359 25.5408C29.926 25.5408 29.5127 25.1198 29.5127 24.6005C29.5127 24.0812 29.926 23.6602 30.4359 23.6602C30.9458 23.6602 31.3592 24.0812 31.3592 24.6005Z" fill="#EC0117"/>
    <path d="M20.7801 22.848C20.2903 22.848 19.8207 23.0131 19.4744 23.307C19.1281 23.6009 18.9336 23.9995 18.9336 24.4152C18.9336 24.8309 19.1281 25.2295 19.4744 25.5234C19.8207 25.8173 20.2903 25.9824 20.7801 25.9824L20.7801 24.4152L20.7801 22.848Z" fill="white"/>
    <path d="M33.0901 22.848C33.5798 22.848 34.0494 23.0131 34.3957 23.307C34.742 23.6009 34.9365 23.9995 34.9365 24.4152C34.9365 24.8309 34.742 25.2295 34.3957 25.5234C34.0494 25.8173 33.5798 25.9824 33.0901 25.9824L33.0901 24.4152L33.0901 22.848Z" fill="white"/>
    <path d="M14.0094 40.4004L7.85449 53.2516" stroke="#EC0117" stroke-width="3" stroke-linecap="round"/>
    <path d="M39.8597 40.4004L46.0146 53.2516" stroke="#EC0117" stroke-width="3" stroke-linecap="round"/>
    <path d="M20.1641 55.0802C20.1641 53.5506 21.4041 52.3105 22.9338 52.3105C24.4634 52.3105 25.7035 53.5506 25.7035 55.0803V63.5945H20.1641V55.0802Z" fill="white"/>
    <path d="M28.166 55.0802C28.166 53.5506 29.4061 52.3105 30.9357 52.3105C32.4654 52.3105 33.7054 53.5506 33.7054 55.0803V63.5945H28.166V55.0802Z" fill="white"/>
    <path d="M18.6543 46.3691V39.3691C18.6543 38.8169 19.102 38.3691 19.6543 38.3691H20.7783C21.3305 38.3691 21.7783 38.8169 21.7783 39.3691V44.5465C21.7783 45.0641 22.1979 45.4836 22.7155 45.4836H23.5843C24.6572 45.4836 25.527 46.3534 25.527 47.4264C25.527 48.4993 24.6572 49.3691 23.5843 49.3691H21.6543C19.9974 49.3691 18.6543 48.026 18.6543 46.3691Z" fill="white"/>
    <path d="M35.3457 46.3691V39.3691C35.3457 38.8169 34.898 38.3691 34.3457 38.3691H33.2217C32.6695 38.3691 32.2217 38.8169 32.2217 39.3691V44.5465C32.2217 45.0641 31.8021 45.4836 31.2845 45.4836H30.4157C29.3428 45.4836 28.473 46.3534 28.473 47.4264C28.473 48.4993 29.3428 49.3691 30.4157 49.3691H32.3457C34.0026 49.3691 35.3457 48.026 35.3457 46.3691Z" fill="white"/>
    <path d="M25.0879 30.9961H28.7808V33.5378C28.7808 34.5576 27.9541 35.3843 26.9344 35.3843C25.9146 35.3843 25.0879 34.5576 25.0879 33.5378V30.9961Z" fill="white"/>
    <rect x="12.7783" y="48.5488" width="28.3125" height="3.13444" fill="white"/>
    <path fill-rule="evenodd" clip-rule="evenodd" d="M24.8664 33.3691L21.8783 33.6458C19.4955 33.8664 17.6729 35.8656 17.6729 38.2586C17.6729 38.685 18.0185 39.0307 18.4449 39.0307H21.2696V45.7876C21.2696 46.8921 22.1651 47.7876 23.2696 47.7876H26.8283H26.8283H30.3869C31.4915 47.7876 32.3869 46.8921 32.3869 45.7876V39.0307H35.2116C35.638 39.0307 35.9837 38.685 35.9837 38.2586C35.9837 35.8656 34.161 33.8664 31.7782 33.6458L28.7901 33.3691H26.8283H26.8283H24.8664Z" fill="url(#paint1_linear_3818_5607)"/>
    <path d="M20.643 48.6117C20.9033 47.4755 21.9142 46.6699 23.0798 46.6699H31.033C32.228 46.6699 33.2559 47.5156 33.4862 48.6882L34.3508 53.0915C34.6541 54.6361 33.4717 56.0732 31.8977 56.0732H22.0711C20.465 56.0732 19.2756 54.5805 19.6342 53.015L20.643 48.6117Z" fill="white"/>
    <rect x="24" y="46.3691" width="7" height="5" rx="1" fill="#EC2029" stroke="white"/>
    <defs>
        <linearGradient id="paint0_linear_3818_5607" x1="-19.5882" y1="37.8691" x2="43.3708" y2="12.0002" gradientUnits="userSpaceOnUse">
            <stop stop-color="#F9A51A"/>
            <stop offset="0.267357" stop-color="#FBB612"/>
            <stop offset="0.881951" stop-color="#FFDD00"/>
        </linearGradient>
        <linearGradient id="paint1_linear_3818_5607" x1="26.8283" y1="47.3691" x2="26.8283" y2="33.3691" gradientUnits="userSpaceOnUse">
            <stop stop-color="#F94103"/>
            <stop offset="1" stop-color="#FACB21"/>
        </linearGradient>
    </defs>
</svg>
